<svg xmlns="http://www.w3.org/2000/svg" xmlns:xlink="http://www.w3.org/1999/xlink" viewBox="0,0,256,256" width="48px" height="48px" fill-rule="nonzero"><g fill="#ff0000" fill-rule="nonzero" stroke="none" stroke-width="1" stroke-linecap="butt" stroke-linejoin="miter" stroke-miterlimit="10" stroke-dasharray="" stroke-dashoffset="0" font-family="none" font-weight="none" font-size="none" text-anchor="none" style="mix-blend-mode: normal"><g transform="scale(5.33333,5.33333)"><path d="M12,22h-1v-0.5c0,-0.28 0.22,-0.5 0.5,-0.5c0.28,0 0.5,0.22 0.5,0.5z"></path><path d="M22.25,21c-0.09,0 -0.17,0.02 -0.25,0.05c-0.29,0.1 -0.5,0.38 -0.5,0.7v2c0,0.32 0.21,0.6 0.5,0.7c0.08,0.03 0.16,0.05 0.25,0.05c0.41,0 0.75,-0.34 0.75,-0.75v-2c0,-0.41 -0.34,-0.75 -0.75,-0.75zM22.25,21c-0.09,0 -0.17,0.02 -0.25,0.05c-0.29,0.1 -0.5,0.38 -0.5,0.7v2c0,0.32 0.21,0.6 0.5,0.7c0.08,0.03 0.16,0.05 0.25,0.05c0.41,0 0.75,-0.34 0.75,-0.75v-2c0,-0.41 -0.34,-0.75 -0.75,-0.75zM22.25,21c-0.09,0 -0.17,0.02 -0.25,0.05c-0.29,0.1 -0.5,0.38 -0.5,0.7v2c0,0.32 0.21,0.6 0.5,0.7c0.08,0.03 0.16,0.05 0.25,0.05c0.41,0 0.75,-0.34 0.75,-0.75v-2c0,-0.41 -0.34,-0.75 -0.75,-0.75zM29.5,21c-0.28,0 -0.5,0.22 -0.5,0.5v0.5h1v-0.5c0,-0.28 -0.22,-0.5 -0.5,-0.5zM29.5,21c-0.28,0 -0.5,0.22 -0.5,0.5v0.5h1v-0.5c0,-0.28 -0.22,-0.5 -0.5,-0.5zM22.25,21c-0.09,0 -0.17,0.02 -0.25,0.05c-0.29,0.1 -0.5,0.38 -0.5,0.7v2c0,0.32 0.21,0.6 0.5,0.7c0.08,0.03 0.16,0.05 0.25,0.05c0.41,0 0.75,-0.34 0.75,-0.75v-2c0,-0.41 -0.34,-0.75 -0.75,-0.75zM38,6h-28c-2.21,0 -4,1.79 -4,4v28c0,2.21 1.79,4 4,4h28c2.21,0 4,-1.79 4,-4v-28c0,-2.21 -1.79,-4 -4,-4zM10,21.5c0,-0.83 0.67,-1.5 1.5,-1.5c0.83,0 1.5,0.67 1.5,1.5v1.5h-2v1c0,0.28 0.22,0.5 0.5,0.5c0.28,0 0.5,-0.22 0.5,-0.5h1c0,0.83 -0.67,1.5 -1.5,1.5c-0.83,0 -1.5,-0.67 -1.5,-1.5zM24,23.88c0,0.89 -0.73,1.62 -1.62,1.62h-0.01c-0.13,0 -0.25,-0.01 -0.37,-0.04c-0.18,-0.04 -0.35,-0.12 -0.5,-0.22v2.26h-1v-7.5h1v0.26c0.15,-0.1 0.32,-0.18 0.5,-0.22c0.12,-0.03 0.24,-0.04 0.37,-0.04h0.01c0.89,0 1.62,0.73 1.62,1.62zM17.93,21.33c1.64,4.85 3.33,11.36 3.07,17.17l-1.5,-0.5c0,0 -0.63,-5 -3.36,-14.52c-1.79,2.25 -3.6,4.95 -5.14,8.02h-1c0,0 0.55,-3.03 5.76,-9.31c-0.64,-2.18 -1.39,-4.58 -2.26,-7.19l1.5,-1c0,0 1.19,2.47 2.51,6.15c1.51,-1.69 3.32,-3.57 5.49,-5.65l1,1c0,0 -2.77,2.08 -6.07,5.83zM27.5,21.03c-0.08,-0.02 -0.16,-0.03 -0.25,-0.03c-0.6,0 -1.14,0.43 -1.25,1v3.5h-1v-5.5h1v0.7c0.03,-0.04 0.06,-0.08 0.09,-0.11c0.36,-0.37 0.86,-0.59 1.41,-0.59zM31,23h-2v1c0,0.28 0.22,0.5 0.5,0.5c0.28,0 0.5,-0.22 0.5,-0.5h1c0,0.83 -0.67,1.5 -1.5,1.5c-0.83,0 -1.5,-0.67 -1.5,-1.5v-2.5c0,-0.83 0.67,-1.5 1.5,-1.5c0.83,0 1.5,0.67 1.5,1.5zM34.6,24.51c-0.08,0.19 -0.19,0.36 -0.33,0.51c-0.15,0.15 -0.32,0.27 -0.51,0.35c-0.2,0.09 -0.42,0.13 -0.65,0.13c-0.44,0 -0.8,-0.14 -1.1,-0.41c-0.15,-0.14 -0.27,-0.31 -0.36,-0.51c-0.09,-0.2 -0.14,-0.43 -0.15,-0.7h1.02c0.02,0.15 0.07,0.28 0.15,0.41c0.08,0.13 0.23,0.19 0.43,0.19c0.16,0 0.29,-0.05 0.42,-0.15c0.12,-0.1 0.18,-0.25 0.18,-0.43c0,-0.15 -0.03,-0.28 -0.11,-0.38c-0.08,-0.11 -0.22,-0.2 -0.43,-0.28l-0.52,-0.19c-0.33,-0.13 -0.6,-0.31 -0.8,-0.57c-0.19,-0.25 -0.29,-0.55 -0.29,-0.91c0,-0.23 0.05,-0.44 0.13,-0.63c0.08,-0.2 0.2,-0.36 0.35,-0.51c0.14,-0.14 0.31,-0.24 0.5,-0.32c0.19,-0.07 0.39,-0.11 0.61,-0.11c0.22,0 0.42,0.04 0.61,0.12c0.19,0.07 0.35,0.18 0.48,0.33c0.14,0.14 0.24,0.3 0.32,0.5c0.08,0.19 0.12,0.4 0.12,0.62h-1.02c-0.01,-0.19 -0.06,-0.32 -0.17,-0.42c-0.11,-0.09 -0.24,-0.13 -0.38,-0.13c-0.17,0 -0.3,0.05 -0.39,0.16c-0.09,0.11 -0.14,0.24 -0.14,0.38c0,0.1 0.02,0.19 0.07,0.29c0.05,0.09 0.18,0.18 0.39,0.26l0.63,0.25c0.4,0.16 0.68,0.37 0.83,0.64c0.16,0.27 0.23,0.56 0.23,0.88c0,0.22 -0.04,0.44 -0.12,0.63zM38.38,24.51c-0.08,0.19 -0.19,0.36 -0.34,0.51c-0.14,0.15 -0.31,0.27 -0.5,0.35c-0.2,0.09 -0.42,0.13 -0.65,0.13c-0.44,0 -0.81,-0.14 -1.1,-0.41c-0.15,-0.14 -0.27,-0.31 -0.36,-0.51c-0.1,-0.2 -0.15,-0.43 -0.15,-0.7h1.02c0.02,0.15 0.07,0.28 0.15,0.41c0.08,0.13 0.22,0.19 0.43,0.19c0.15,0 0.29,-0.05 0.42,-0.15c0.12,-0.1 0.18,-0.25 0.18,-0.43c0,-0.15 -0.04,-0.28 -0.11,-0.38c-0.08,-0.11 -0.22,-0.2 -0.43,-0.28l-0.52,-0.19c-0.34,-0.13 -0.6,-0.31 -0.8,-0.57c-0.19,-0.25 -0.29,-0.55 -0.29,-0.91c0,-0.23 0.04,-0.44 0.13,-0.63c0.08,-0.2 0.2,-0.36 0.35,-0.51c0.14,-0.14 0.31,-0.24 0.5,-0.32c0.19,-0.07 0.39,-0.11 0.61,-0.11c0.22,0 0.42,0.04 0.61,0.12c0.19,0.07 0.35,0.18 0.48,0.33c0.14,0.14 0.24,0.3 0.32,0.5c0.08,0.19 0.12,0.4 0.12,0.62h-1.02c-0.01,-0.19 -0.07,-0.32 -0.17,-0.42c-0.11,-0.09 -0.24,-0.13 -0.38,-0.13c-0.17,0 -0.3,0.05 -0.39,0.16c-0.1,0.11 -0.14,0.24 -0.14,0.38c0,0.1 0.02,0.19 0.07,0.29c0.05,0.09 0.18,0.18 0.38,0.26l0.64,0.25c0.4,0.16 0.68,0.37 0.83,0.64c0.15,0.27 0.23,0.56 0.23,0.88c0,0.22 -0.04,0.44 -0.12,0.63zM29.5,21c-0.28,0 -0.5,0.22 -0.5,0.5v0.5h1v-0.5c0,-0.28 -0.22,-0.5 -0.5,-0.5zM22.25,21c-0.09,0 -0.17,0.02 -0.25,0.05c-0.29,0.1 -0.5,0.38 -0.5,0.7v2c0,0.32 0.21,0.6 0.5,0.7c0.08,0.03 0.16,0.05 0.25,0.05c0.41,0 0.75,-0.34 0.75,-0.75v-2c0,-0.41 -0.34,-0.75 -0.75,-0.75zM22.25,21c-0.09,0 -0.17,0.02 -0.25,0.05c-0.29,0.1 -0.5,0.38 -0.5,0.7v2c0,0.32 0.21,0.6 0.5,0.7c0.08,0.03 0.16,0.05 0.25,0.05c0.41,0 0.75,-0.34 0.75,-0.75v-2c0,-0.41 -0.34,-0.75 -0.75,-0.75zM29.5,21c-0.28,0 -0.5,0.22 -0.5,0.5v0.5h1v-0.5c0,-0.28 -0.22,-0.5 -0.5,-0.5zM29.5,21c-0.28,0 -0.5,0.22 -0.5,0.5v0.5h1v-0.5c0,-0.28 -0.22,-0.5 -0.5,-0.5zM22.25,21c-0.09,0 -0.17,0.02 -0.25,0.05c-0.29,0.1 -0.5,0.38 -0.5,0.7v2c0,0.32 0.21,0.6 0.5,0.7c0.08,0.03 0.16,0.05 0.25,0.05c0.41,0 0.75,-0.34 0.75,-0.75v-2c0,-0.41 -0.34,-0.75 -0.75,-0.75zM22.25,21c-0.09,0 -0.17,0.02 -0.25,0.05c-0.29,0.1 -0.5,0.38 -0.5,0.7v2c0,0.32 0.21,0.6 0.5,0.7c0.08,0.03 0.16,0.05 0.25,0.05c0.41,0 0.75,-0.34 0.75,-0.75v-2c0,-0.41 -0.34,-0.75 -0.75,-0.75zM22.25,21c-0.09,0 -0.17,0.02 -0.25,0.05c-0.29,0.1 -0.5,0.38 -0.5,0.7v2c0,0.32 0.21,0.6 0.5,0.7c0.08,0.03 0.16,0.05 0.25,0.05c0.41,0 0.75,-0.34 0.75,-0.75v-2c0,-0.41 -0.34,-0.75 -0.75,-0.75z"></path></g></g></svg>